<svg width="56" height="44" viewBox="0 0 56 44" fill="none" xmlns="http://www.w3.org/2000/svg">
<path d="M28.0062 10.719C20.0732 10.6993 13.6268 15.7458 13.6018 21.9804C13.5768 28.2149 19.9982 33.281 27.9313 33.3007C35.8644 33.3203 42.3108 28.2738 42.3358 22.0393C42.3607 15.8048 35.9393 10.7386 28.0062 10.719ZM27.9313 14.6855C33.0784 14.6658 37.2636 17.9353 37.2886 21.9804C37.3136 26.0254 33.1534 29.3145 28.0062 29.3341C22.8591 29.3538 18.674 26.0843 18.649 22.0393C18.624 17.9942 22.7842 14.7051 27.9313 14.6855ZM39.5998 10.2575C39.5998 8.80442 41.0989 7.62624 42.9479 7.62624C44.7969 7.62624 46.296 8.80442 46.296 10.2575C46.296 11.7106 44.7969 12.8888 42.9479 12.8888C41.0989 12.8888 39.5998 11.7106 39.5998 10.2575ZM55.8032 12.928C55.5909 9.40332 54.5664 6.28116 51.2808 3.7088C48.0076 1.13645 44.0348 0.331362 39.5498 0.154636C34.9274 -0.0515452 21.0726 -0.0515452 16.4502 0.154636C11.9777 0.321544 8.00491 1.12663 4.71924 3.69898C1.43357 6.27134 0.42164 9.39351 0.196765 12.9182C-0.0655884 16.5509 -0.0655884 27.4392 0.196765 31.072C0.409147 34.5967 1.43357 37.7188 4.71924 40.2912C8.00491 42.8635 11.9652 43.6686 16.4502 43.8454C21.0726 44.0515 34.9274 44.0515 39.5498 43.8454C44.0348 43.6785 48.0076 42.8734 51.2808 40.2912C54.5539 37.7188 55.5784 34.5967 55.8032 31.072C56.0656 27.4392 56.0656 16.5607 55.8032 12.928ZM49.8316 34.9698C48.8571 36.8941 46.9707 38.3767 44.5095 39.1523C40.8241 40.301 32.079 40.0359 28.0062 40.0359C23.9335 40.0359 15.1759 40.2912 11.503 39.1523C9.05432 38.3865 7.16788 36.9039 6.18093 34.9698C4.71924 32.0734 5.05655 25.2007 5.05655 22C5.05655 18.7993 4.73174 11.9168 6.18093 9.03023C7.15538 7.10588 9.04183 5.62334 11.503 4.84771C15.1884 3.69898 23.9335 3.96407 28.0062 3.96407C32.079 3.96407 40.8366 3.7088 44.5095 4.84771C46.9582 5.61352 48.8446 7.09606 49.8316 9.03023C51.2933 11.9266 50.9559 18.7993 50.9559 22C50.9559 25.2007 51.2933 32.0832 49.8316 34.9698Z" fill="#5E5D03"/>
</svg>
