<svg width="148" height="78" viewBox="0 0 148 78" fill="none" xmlns="http://www.w3.org/2000/svg">
<path d="M135.652 60.0642C127.639 59.9569 121.428 60.3876 116.22 61.5711C114.717 61.8938 112.313 61.8941 112.113 62.9163C112.914 63.347 113.014 64.0464 113.716 64.6382C114.918 65.714 117.021 67.1672 118.924 67.9206C121.027 68.7814 123.131 69.6422 125.334 70.3956C129.241 71.6871 133.648 72.4402 137.454 73.7317C139.659 74.4845 141.861 75.4536 144.065 76.2607C145.167 76.6908 145.868 77.3905 147.27 77.6596V77.4982C146.569 77.0138 146.368 76.3144 145.668 75.7763C144.667 75.2382 143.665 74.7539 142.663 74.2158C139.758 72.1175 136.152 70.2879 132.246 68.7814C129.041 67.5976 122.029 65.9834 120.727 63.9924C120.727 63.9924 120.627 63.9387 120.527 63.8851C122.73 63.7774 125.334 63.347 127.438 63.0239C130.844 62.5396 133.949 62.6472 137.454 62.1632C139.057 61.9478 140.66 61.6788 142.262 61.4097V60.9257C140.46 59.9569 139.157 58.6657 137.254 57.7509C132.146 55.3829 126.536 53.0696 120.727 51.1327C117.622 50.0565 113.615 49.3568 110.31 48.4423C109.108 48.1189 107.105 47.9579 106.404 47.4198C104.6 46.236 103.599 44.6758 102.297 43.2766C99.3932 40.3169 96.5875 37.0351 94.0834 33.9144C92.2813 31.8157 91.1791 29.7171 88.9754 27.7802C78.6588 18.633 67.4405 13.0909 50.2124 7.65617C46.5062 6.52635 42.0995 6.04195 37.3917 5.45021C34.8883 5.3962 32.3836 5.28886 29.8795 5.23485C28.2771 4.85812 26.6742 3.836 25.2716 3.35159C19.5635 1.41433 4.83883 -2.78223 0.631889 2.75985C-2.07263 6.25733 4.63839 9.70077 6.94198 11.4767C8.64551 12.7142 10.8486 14.113 12.0507 15.5122C12.7519 16.4263 12.9517 17.3955 13.653 18.3639C15.256 20.7309 16.7578 23.3679 18.8616 25.5743C19.9638 26.7041 21.1652 27.8879 22.5677 28.91C23.3689 29.5018 24.7708 29.7711 25.0718 30.7396C23.6699 31.8157 23.5693 33.43 22.7675 34.7752C19.1619 40.8553 20.5645 48.3883 25.6725 52.8542C27.2749 54.1991 31.0815 57.1592 36.1896 56.029C40.6969 55.0605 39.6953 51.9935 40.9973 49.3031C41.2983 48.657 41.0978 48.227 41.6985 47.7966C41.6991 47.8502 41.6985 47.9042 41.6985 47.9042C43.1011 49.4108 44.503 50.8636 45.805 52.3702C48.9104 55.0065 54.3188 57.7509 58.8261 59.5805C61.2309 60.5486 63.1336 62.2168 66.1384 62.8089V62.6472H65.938C65.3366 62.1628 64.4355 61.9478 63.6344 61.5711C61.8316 60.6026 59.8277 59.4188 58.4258 58.3426C54.2195 55.3292 50.5127 51.9935 47.2075 48.5497C45.6051 46.8818 44.2026 45.0522 42.9006 43.3843C42.2993 42.7382 42.2993 41.7701 41.2976 41.4474C39.7952 42.6309 37.5921 43.6533 36.49 45.1062C34.5879 47.4199 34.3868 50.2716 33.6855 53.2309C33.2853 53.285 33.4851 53.2309 33.2846 53.3386C30.0799 52.9079 28.9778 51.1327 27.7757 49.6258C24.7708 45.8056 24.27 39.6715 26.8746 35.2596C27.5758 34.1294 30.5807 30.5783 29.3786 29.5021C28.7779 28.4796 26.774 27.8879 25.6725 27.0808C24.3705 26.0583 22.968 24.7671 22.0669 23.637C19.6627 20.6239 18.4607 17.2878 15.8567 14.2744C14.6546 12.8752 12.5515 11.4227 10.8486 10.1315C8.94587 8.67864 6.84207 7.65617 5.33961 5.93426C4.83943 5.34252 4.13753 4.37406 4.93871 3.7283C5.13916 3.29792 5.53943 3.13656 6.34124 3.02888C7.64323 2.43679 11.3494 3.19023 12.6513 3.51294C16.3575 4.3197 19.4623 5.07349 22.5677 6.2033C23.9696 6.74137 25.472 7.76385 27.2748 8.03288H29.3786C32.5839 8.40926 36.1895 8.14056 39.1944 8.62463C44.5035 9.53908 49.3106 10.8846 53.6181 12.3375C66.7398 16.8034 77.5566 23.1529 84.869 30.7396C86.0711 31.9768 86.5712 33.1073 87.6734 34.3984C89.7772 37.0351 92.3812 39.7255 94.4843 42.3082C96.5875 44.8368 98.5907 47.4199 101.596 49.5185C103.099 50.648 109.108 51.24 111.812 51.8321C113.816 52.3162 116.921 52.7469 118.724 53.3387C122.129 54.4681 125.535 55.76 128.74 56.9975C130.343 57.6429 135.35 58.9884 135.651 60.0642L135.652 60.0642Z" fill="#00546B"/>
</svg>
