<svg width="56" height="44" viewBox="0 0 56 44" fill="none" xmlns="http://www.w3.org/2000/svg">
<path d="M50.0002 10.9709C50.0329 11.447 50.0329 11.9336 50.0329 12.4097C50.0329 27.0834 38.5396 44 17.5338 44C11.058 44 5.05009 42.1803 0 39.0171C0.91424 39.1229 1.80671 39.1546 2.7536 39.1546C8.09755 39.1546 13.0062 37.3984 16.9352 34.415C11.9178 34.3092 7.70574 31.1142 6.25819 26.7132C6.96564 26.8189 7.67309 26.8824 8.41319 26.8824C9.43626 26.8824 10.4593 26.7449 11.4171 26.5016C6.182 25.4754 2.26383 21.0002 2.26383 15.6047V15.4672C3.78757 16.2924 5.55074 16.8108 7.42276 16.8742C4.34264 14.8853 2.32914 11.4787 2.32914 7.6278C2.32914 5.5648 2.89509 3.67108 3.88552 2.02068C9.51245 8.7598 17.9583 13.1609 27.4381 13.6369C27.2639 12.8117 27.1551 11.9548 27.1551 11.0979C27.1551 4.98293 32.2487 0 38.5722 0C41.8591 0 44.8304 1.34359 46.9201 3.5018C49.4996 3.02573 51.9811 2.09473 54.1687 0.825199C53.3198 3.40659 51.5131 5.5648 49.1513 6.94013C51.4478 6.6968 53.6789 6.08319 55.7251 5.22626C54.1687 7.42678 52.2205 9.38399 50.0002 10.9709Z" fill="#CFCFC8"/>
</svg>
