<svg width="45" height="37" viewBox="0 0 45 37" fill="none" xmlns="http://www.w3.org/2000/svg">
<path d="M0 28.88L10.5314 25.4394C13.3038 27.994 16.9069 29.8706 23.2814 29.8706C28.6406 29.8706 32.0581 28.3587 32.0581 26.2735C32.0581 23.7712 28.5475 22.8849 22.6345 21.4258L19.4018 20.6433C10.07 18.4021 3.87975 15.5871 3.87975 9.64421C3.87975 4.17056 11.2707 0 22.8197 0C31.0424 0 36.9552 1.61618 41.2046 5.83877L31.1342 9.48765C28.9167 7.24625 26.5153 6.36019 22.82 6.36019C19.032 6.36019 16.6297 7.71554 16.6297 9.48765C16.6297 11.6772 19.032 12.5636 24.5747 13.9191L27.808 14.7009C38.8023 17.3597 44.9926 20.0702 44.9926 26.1692C44.9926 32.7379 35.8463 36.3346 23.5588 36.3346C11.5484 36.3346 3.78756 33.1027 0.000221498 28.88" fill="black"/>
</svg>
