<svg width="48" height="32" viewBox="0 0 48 32" fill="none" xmlns="http://www.w3.org/2000/svg">
<path d="M15.7459 25.7664C15.7459 25.8987 15.5276 26.0046 15.2524 26.0046C14.9392 26.0244 14.7209 25.9185 14.7209 25.7664C14.7209 25.634 14.9392 25.5281 15.2144 25.5281C15.4992 25.5083 15.7459 25.6142 15.7459 25.7664ZM12.7942 25.4686C12.7277 25.6009 12.9175 25.7531 13.2023 25.7928C13.4491 25.859 13.7338 25.7928 13.7907 25.6605C13.8477 25.5281 13.6673 25.376 13.3826 25.3164C13.1358 25.2701 12.8606 25.3362 12.7942 25.4686ZM16.9893 25.3561C16.714 25.4024 16.5242 25.5281 16.5527 25.6803C16.5812 25.8127 16.8279 25.8987 17.1127 25.8524C17.3879 25.8061 17.5777 25.6803 17.5493 25.548C17.5208 25.4223 17.2645 25.3363 16.9893 25.3561ZM23.2345 0C10.0702 0 0 6.96763 0 16.1453C0 23.4835 6.62487 29.763 16.0876 31.973C17.3025 32.1252 17.7296 31.6025 17.7296 31.1724C17.7296 30.7621 17.7011 28.4991 17.7011 27.1096C17.7011 27.1096 11.0573 28.1021 9.66206 25.1377C9.66206 25.1377 8.58006 23.2122 7.0235 22.7159C7.0235 22.7159 4.85001 21.6771 7.17536 21.6969C7.17536 21.6969 9.53867 21.8293 10.839 23.4041C12.9175 25.9582 16.4008 25.2238 17.7581 24.787C17.9764 23.7283 18.5933 22.9939 19.2767 22.5571C13.9711 22.1469 8.61802 21.6109 8.61802 15.2454C8.61802 13.4258 9.33935 12.5126 10.8579 11.348C10.6112 10.9179 9.80442 9.14461 11.1047 6.85515C13.0884 6.42505 17.6537 8.64172 17.6537 8.64172C19.5519 8.27117 21.5925 8.07928 23.6141 8.07928C25.6358 8.07928 27.6764 8.27117 29.5746 8.64172C29.5746 8.64172 34.1399 6.41843 36.1236 6.85515C37.4239 9.15122 36.6171 10.9179 36.3703 11.348C37.8889 12.5192 38.8191 13.4324 38.8191 15.2454C38.8191 21.6308 33.2287 22.1403 27.9232 22.5571C28.7963 23.0799 29.5367 24.0724 29.5367 25.6274C29.5367 27.8573 29.5082 30.6166 29.5082 31.1592C29.5082 31.5893 29.9448 32.112 31.1502 31.9598C40.6414 29.763 47.0764 23.4835 47.0764 16.1453C47.0764 6.96763 36.3988 0 23.2345 0ZM9.22546 22.8218C9.10207 22.888 9.13055 23.0402 9.2919 23.1659C9.44376 23.2718 9.66206 23.3181 9.78544 23.2321C9.90883 23.1659 9.88035 23.0137 9.719 22.888C9.56714 22.7821 9.34885 22.7358 9.22546 22.8218ZM8.20041 22.2858C8.13397 22.3719 8.22888 22.4777 8.41871 22.5439C8.57057 22.6101 8.76039 22.5902 8.82683 22.4976C8.89327 22.4116 8.79836 22.3057 8.60853 22.2395C8.41871 22.1998 8.26685 22.2197 8.20041 22.2858ZM11.2756 24.6415C11.1237 24.7275 11.1807 24.926 11.3989 25.0517C11.6172 25.2039 11.8925 25.2238 12.0159 25.1179C12.1393 25.0319 12.0823 24.8334 11.8925 24.7076C11.6837 24.5555 11.3989 24.5356 11.2756 24.6415ZM10.1936 23.6688C10.0417 23.735 10.0417 23.907 10.1936 24.0592C10.3454 24.2114 10.6017 24.2775 10.7251 24.2114C10.8769 24.1254 10.8769 23.9533 10.7251 23.8011C10.5922 23.6489 10.3454 23.5828 10.1936 23.6688Z" fill="#474306"/>
</svg>
