<svg width="56" height="44" viewBox="0 0 56 44" fill="none" xmlns="http://www.w3.org/2000/svg">
<path d="M18.7306 35.4287C18.7306 35.6107 18.471 35.7563 18.1435 35.7563C17.771 35.7836 17.5113 35.638 17.5113 35.4287C17.5113 35.2468 17.771 35.1012 18.0984 35.1012C18.4371 35.0739 18.7306 35.2195 18.7306 35.4287ZM15.2194 35.0193C15.1403 35.2013 15.3661 35.4105 15.7048 35.4651C15.9984 35.5561 16.3371 35.4651 16.4048 35.2832C16.4726 35.1012 16.2581 34.8919 15.9194 34.8101C15.6258 34.7464 15.2984 34.8373 15.2194 35.0193ZM20.2097 34.8646C19.8823 34.9283 19.6565 35.1012 19.6903 35.3105C19.7242 35.4924 20.0177 35.6107 20.3565 35.547C20.6839 35.4833 20.9097 35.3105 20.8758 35.1285C20.8419 34.9556 20.5371 34.8373 20.2097 34.8646ZM27.6387 0C11.979 0 0 9.5805 0 22.1998C0 32.2898 7.88065 40.9241 19.1371 43.9629C20.5823 44.1722 21.0903 43.4534 21.0903 42.862C21.0903 42.2979 21.0565 39.1863 21.0565 37.2757C21.0565 37.2757 13.1532 38.6404 11.4935 34.5644C11.4935 34.5644 10.2065 31.9168 8.35484 31.2344C8.35484 31.2344 5.76936 29.806 8.53548 29.8333C8.53548 29.8333 11.3468 30.0153 12.8935 32.1806C15.3661 35.6926 19.5097 34.6827 21.1242 34.0822C21.3839 32.6265 22.1177 31.6166 22.9306 31.0161C16.6194 30.452 10.2516 29.715 10.2516 20.9625C10.2516 18.4604 11.1097 17.2049 12.9161 15.6036C12.6226 15.0122 11.6629 12.5738 13.2097 9.42583C15.5694 8.83444 21 11.8824 21 11.8824C23.2581 11.3729 25.6855 11.109 28.0903 11.109C30.4952 11.109 32.9226 11.3729 35.1806 11.8824C35.1806 11.8824 40.6113 8.82534 42.971 9.42583C44.5177 12.5829 43.5581 15.0122 43.2645 15.6036C45.071 17.214 46.1774 18.4695 46.1774 20.9625C46.1774 29.7423 39.5274 30.4429 33.2161 31.0161C34.2548 31.7348 35.1355 33.0996 35.1355 35.2377C35.1355 38.3038 35.1016 42.0978 35.1016 42.8438C35.1016 43.4352 35.621 44.154 37.0548 43.9447C48.3452 40.9241 56 32.2898 56 22.1998C56 9.5805 43.2984 0 27.6387 0ZM10.9742 31.38C10.8274 31.471 10.8613 31.6802 11.0532 31.8531C11.2339 31.9987 11.4935 32.0624 11.6403 31.9441C11.7871 31.8531 11.7532 31.6438 11.5613 31.471C11.3806 31.3254 11.121 31.2617 10.9742 31.38ZM9.75484 30.643C9.67581 30.7613 9.78871 30.9069 10.0145 30.9979C10.1952 31.0889 10.421 31.0616 10.5 30.9342C10.579 30.8159 10.4661 30.6703 10.2403 30.5793C10.0145 30.5248 9.83387 30.5521 9.75484 30.643ZM13.4129 33.882C13.2323 34.0003 13.3 34.2733 13.5597 34.4461C13.8194 34.6554 14.1468 34.6827 14.2935 34.5371C14.4403 34.4188 14.3726 34.1459 14.1468 33.973C13.8984 33.7637 13.5597 33.7365 13.4129 33.882ZM12.1258 32.5446C11.9452 32.6356 11.9452 32.8721 12.1258 33.0814C12.3065 33.2906 12.6113 33.3816 12.7581 33.2906C12.9387 33.1724 12.9387 32.9358 12.7581 32.7265C12.6 32.5173 12.3065 32.4263 12.1258 32.5446Z" fill="#474306"/>
</svg>
