<svg width="60" height="60" viewBox="0 0 60 60" fill="none" xmlns="http://www.w3.org/2000/svg">
<path d="M32.0477 0.194062C30.5336 -0.0646875 28.9797 -0.0646875 27.4656 0.194062L2.56328 4.41281C1.07578 4.66031 0 5.77406 0 7.05656C0 8.21531 0.863281 9.22781 2.125 9.59906V17.8566L0.0398442 26.6991C0.0132817 26.8003 0 26.9128 0 27.0253C0 27.9253 0.863281 28.6678 1.93906 28.6678H6.57422C7.63672 28.6678 8.51328 27.9366 8.51328 27.0253C8.51328 26.9128 8.5 26.8116 8.47344 26.6991L6.375 17.8566V10.3528L12.75 11.4328V17.8566C12.75 25.8103 20.3602 32.2566 29.75 32.2566C39.1398 32.2566 46.75 25.8103 46.75 17.8566V11.4328L56.9367 9.71156C58.4242 9.45281 59.5 8.33906 59.5 7.05656C59.5 5.77406 58.4242 4.66031 56.9367 4.41281L32.0477 0.194062ZM29.75 26.8566C23.8797 26.8566 19.125 22.8291 19.125 17.8566H40.375C40.375 22.8291 35.6203 26.8566 29.75 26.8566ZM15.9508 37.6678C7.79609 40.8403 2.125 47.8153 2.125 55.9153C2.125 57.7603 3.89141 59.2566 6.06953 59.2566H26.5625V42.8316L18.9391 37.9941C18.0758 37.4428 16.9203 37.2966 15.9375 37.6791L15.9508 37.6678ZM32.9375 59.2566H53.4305C55.6086 59.2566 57.375 57.7603 57.375 55.9153C57.375 47.8153 51.7039 40.8403 43.5492 37.6791C42.5664 37.2966 41.4109 37.4428 40.5477 37.9941L32.9242 42.8316V59.2566H32.9375Z" fill="#10AA50"/>
</svg>
