<svg width="56" height="44" viewBox="0 0 56 44" fill="none" xmlns="http://www.w3.org/2000/svg">
<path d="M56 22.0819C56 9.88512 43.4656 0 28 0C12.5344 0 0 9.88512 0 22.0819C0 32.4329 9.04531 41.1276 21.2406 43.517V28.8273H15.4656V22.0819H21.2406V19.1751C21.2406 11.662 25.55 8.17722 34.9125 8.17722C36.6844 8.17722 39.7469 8.45324 41.0047 8.72927V14.8363C40.3484 14.7846 39.2 14.75 37.7672 14.75C33.1734 14.75 31.4016 16.1215 31.4016 19.684V22.0819H40.5453L38.9703 28.8273H31.3906V44C45.2594 42.6803 56 33.3731 56 22.0819Z" fill="#474306"/>
</svg>
